<?xml version="1.0" encoding="UTF-8"?>
<svg id="Layer_1" data-name="Layer 1" xmlns="http://www.w3.org/2000/svg" viewBox="0 0 2560 423" class="img">
  <defs>
      <style>
      .cls-1 {
          fill: whitesmoke;
          z-index: 10;
      }

      .cls-2 {
          fill: #161616;
          stroke: whitesmoke;
          stroke-linecap: round;
          stroke-linejoin: round;
          stroke-width: 7px;
      }

      .cls-3 {
          fill: #161616;
      }

      .cls-4 {
          fill: #282828;
      }
      </style>
  </defs>
  <rect class="cls-3" x="0" y="0" width="2650" height="245.38"/>
  <rect class="cls-4" x="0" y="245.38" width="2650" height="200"/>
  <path class="cls-2" d="m962.71,226.19c.98,19.53-.03,37.56,2.2,52.06,3.61,23.45,35.37,29.66,35.37,6.37v-65.9c0-18.82-38.88-18.82-37.56,7.47Z"/>
  <path class="cls-2" d="m1039.37,280.89v-53.6c0-21.31-39.1-30.75-39.1,0v61.07c0,22.63,39.1,14.5,39.1-7.47Z"/>
  <path class="cls-2" d="m1080.23,277.15c0-19.11,0-14.06-.88-41.08-.74-22.61-39.98-31.85-39.98,0v53.16c0,18.29,40.86,13.27,40.86-12.08Z"/>
  <path class="cls-2" d="m1468.17,232.78c-1.12,19.52-1.93,49.68-2.86,63.27-1.98,29,42.84,22.41,42.84-.88v-59.97c0-23.11-38.44-29.22-39.98-2.42Z"/>
  <path class="cls-2" d="m1544.84,285.63v-53.6c0-22.1-36.68-30.75-36.68,0v56.32c0,24.6,36.68,24.16,36.68-2.72Z"/>
  <path class="cls-2" d="m1588.99,281.76c-.62-19.36-1.03-24.2-3.51-44.15-3.69-29.57-40.64-28.34-40.64-2.78v53.16c0,24.31,45.13,24.09,44.15-6.23Z"/>
  <path class="cls-2" d="m1240.67,241.78c-6.15,32.51-10.43,70.87-7.82,94,6.24,55.3,88.21,50.84,96.86,2.36,5.93-33.24-4.32-72.93-8.2-96.36"/>
  <path class="cls-2" d="m1127.61,241.78c-7.03-90.21,42.76-174.56,161.68-172.22,127.38,2.51,147.91,83.77,144.4,172.22"/>
  <path class="cls-2" d="m1158.07,241.78c-4.39-45.98,12.89-78.84,48.63-76.36,30.75,2.13,42.16,41.51,33.96,76.36"/>
  <path class="cls-2" d="m1400,241.78c6.15-50.38-14.13-80.93-49.5-78.73-35.73,2.23-41.01,28.65-29,78.73"/>
  <line class="cls-2" x1="-28.01" y1="241.78" x2="962.68" y2="241.78"/>
  <line class="cls-2" x1="1080.23" y1="241.78" x2="1240.67" y2="241.78"/>
  <line class="cls-2" x1="1321.51" y1="241.78" x2="1467.71" y2="241.78"/>
  <line class="cls-2" x1="1586.11" y1="241.78" x2="2634.87" y2="241.78"/>
  <path id="L_Eye_Fill" data-name="L Eye Fill" class="cls-1" d="m1182.67,241.78c-4.39-16.99.59-44.23,22.55-40.86,21.87,3.35,9.24,40.86,9.24,40.86h-31.79Z"/>
  <path id="R_Eye_Fill" data-name="R Eye Fill" class="cls-1" d="m1344.35,241.78s-12.02-35.31,5.37-41.15c22.26-7.47,34.75,21.82,30.07,41.15h-35.44Z"/>
  <path id="hair" class="cls-2" d="m1406.72,18.05c-36.72,1.49-44.33,28.75-31.31,28.68,37.78-.21-12.63,36.87-12.63,36.87"/>
</svg>